<?xml version="1.0" encoding="utf-8"?>
<svg viewBox="1.128 20.381 237.219 48" width="237.219" height="48" xmlns="http://www.w3.org/2000/svg">
  <path d="M 87.339 50.532 C 85.066 50.532 83.223 50.231 81.809 49.628 C 80.395 49.002 79.329 48.145 78.61 47.055 C 77.915 45.966 77.509 44.737 77.393 43.37 L 80.105 43.37 C 80.175 44.482 80.546 45.386 81.219 46.082 C 81.891 46.754 82.771 47.252 83.861 47.577 C 84.974 47.902 86.191 48.063 87.512 48.063 C 89.459 48.063 91.001 47.727 92.136 47.055 C 93.273 46.36 93.84 45.34 93.84 43.996 C 93.84 43.184 93.55 42.535 92.971 42.048 C 92.415 41.538 91.662 41.121 90.711 40.797 C 89.783 40.472 88.764 40.182 87.651 39.927 C 86.538 39.649 85.414 39.36 84.278 39.058 C 83.166 38.757 82.134 38.374 81.183 37.91 C 80.257 37.447 79.503 36.855 78.923 36.137 C 78.367 35.396 78.089 34.456 78.089 33.32 C 78.089 31.443 78.807 29.913 80.245 28.731 C 81.705 27.549 83.872 26.957 86.747 26.957 C 88.787 26.957 90.468 27.27 91.789 27.896 C 93.11 28.499 94.095 29.299 94.744 30.295 C 95.417 31.293 95.788 32.371 95.857 33.529 L 93.18 33.529 C 93.04 32.371 92.461 31.397 91.441 30.608 C 90.421 29.797 88.857 29.391 86.747 29.391 C 85.449 29.391 84.394 29.519 83.583 29.774 C 82.771 30.029 82.145 30.365 81.705 30.782 C 81.287 31.177 80.998 31.593 80.836 32.033 C 80.697 32.475 80.627 32.891 80.627 33.286 C 80.627 34.05 80.906 34.677 81.462 35.164 C 82.041 35.627 82.794 36.022 83.722 36.346 C 84.672 36.647 85.715 36.925 86.851 37.18 C 87.988 37.436 89.111 37.725 90.224 38.049 C 91.36 38.351 92.391 38.745 93.319 39.231 C 94.269 39.696 95.023 40.298 95.579 41.04 C 96.158 41.782 96.448 42.732 96.448 43.891 C 96.448 46.023 95.637 47.67 94.015 48.828 C 92.391 49.964 90.166 50.532 87.339 50.532 Z M 99.933 50.255 L 99.933 32.868 L 102.541 32.868 L 102.541 35.58 C 103.167 34.746 103.932 34.039 104.837 33.46 C 105.74 32.88 106.899 32.591 108.313 32.591 C 109.519 32.591 110.643 32.88 111.686 33.46 C 112.752 34.016 113.61 34.862 114.259 35.998 C 114.931 37.111 115.268 38.489 115.268 40.136 L 115.268 50.255 L 112.659 50.255 L 112.659 40.205 C 112.659 38.629 112.208 37.366 111.304 36.415 C 110.399 35.441 109.23 34.955 107.792 34.955 C 106.818 34.955 105.937 35.175 105.15 35.616 C 104.361 36.056 103.723 36.682 103.237 37.493 C 102.774 38.281 102.541 39.197 102.541 40.24 L 102.541 50.255 L 99.933 50.255 Z M 126.965 50.532 C 125.273 50.532 123.789 50.139 122.514 49.35 C 121.263 48.539 120.289 47.45 119.593 46.082 C 118.898 44.714 118.551 43.207 118.551 41.561 C 118.551 39.892 118.898 38.385 119.593 37.041 C 120.289 35.673 121.263 34.595 122.514 33.807 C 123.789 32.996 125.273 32.591 126.965 32.591 C 128.402 32.591 129.63 32.868 130.651 33.424 C 131.694 33.982 132.54 34.735 133.189 35.685 L 133.189 32.868 L 135.797 32.868 L 135.797 50.255 L 133.189 50.255 L 133.189 47.473 C 132.54 48.399 131.694 49.141 130.651 49.698 C 129.63 50.255 128.402 50.532 126.965 50.532 Z M 127.313 48.168 C 128.611 48.168 129.7 47.867 130.581 47.264 C 131.486 46.661 132.169 45.862 132.632 44.865 C 133.097 43.845 133.328 42.744 133.328 41.561 C 133.328 40.356 133.097 39.255 132.632 38.258 C 132.169 37.261 131.486 36.462 130.581 35.859 C 129.7 35.256 128.611 34.955 127.313 34.955 C 126.038 34.955 124.937 35.256 124.009 35.859 C 123.083 36.462 122.375 37.261 121.889 38.258 C 121.402 39.255 121.158 40.356 121.158 41.561 C 121.158 42.744 121.402 43.845 121.889 44.865 C 122.375 45.862 123.083 46.661 124.009 47.264 C 124.937 47.867 126.038 48.168 127.313 48.168 Z M 140.307 57.139 L 140.307 32.868 L 142.916 32.868 L 142.916 35.65 C 143.565 34.7 144.4 33.958 145.419 33.424 C 146.463 32.868 147.702 32.591 149.14 32.591 C 150.832 32.591 152.304 32.996 153.556 33.807 C 154.831 34.595 155.816 35.673 156.511 37.041 C 157.207 38.385 157.555 39.892 157.555 41.561 C 157.555 43.207 157.207 44.714 156.511 46.082 C 155.816 47.45 154.831 48.539 153.556 49.35 C 152.304 50.139 150.832 50.532 149.14 50.532 C 147.702 50.532 146.463 50.255 145.419 49.698 C 144.4 49.118 143.565 48.365 142.916 47.438 L 142.916 57.139 L 140.307 57.139 Z M 148.793 48.168 C 150.091 48.168 151.192 47.867 152.095 47.264 C 153.023 46.661 153.729 45.862 154.217 44.865 C 154.703 43.845 154.947 42.744 154.947 41.561 C 154.947 40.356 154.703 39.255 154.217 38.258 C 153.729 37.261 153.023 36.462 152.095 35.859 C 151.192 35.256 150.091 34.955 148.793 34.955 C 147.518 34.955 146.428 35.256 145.524 35.859 C 144.62 36.462 143.935 37.261 143.472 38.258 C 143.009 39.255 142.776 40.356 142.776 41.561 C 142.776 42.744 143.009 43.845 143.472 44.865 C 143.935 45.862 144.62 46.661 145.524 47.264 C 146.428 47.867 147.518 48.168 148.793 48.168 Z M 169.819 50.532 C 168.382 50.532 167.141 50.255 166.099 49.698 C 165.078 49.141 164.243 48.399 163.594 47.473 L 163.594 50.255 L 160.987 50.255 L 160.987 25.915 L 163.594 25.915 L 163.594 35.685 C 164.243 34.735 165.078 33.982 166.099 33.424 C 167.141 32.868 168.382 32.591 169.819 32.591 C 171.511 32.591 172.984 32.996 174.235 33.807 C 175.51 34.595 176.495 35.673 177.191 37.041 C 177.886 38.385 178.233 39.892 178.233 41.561 C 178.233 43.207 177.886 44.714 177.191 46.082 C 176.495 47.45 175.51 48.539 174.235 49.35 C 172.984 50.139 171.511 50.532 169.819 50.532 Z M 169.471 48.168 C 170.769 48.168 171.87 47.867 172.775 47.264 C 173.701 46.661 174.409 45.862 174.895 44.865 C 175.382 43.845 175.626 42.744 175.626 41.561 C 175.626 40.356 175.382 39.255 174.895 38.258 C 174.409 37.261 173.701 36.462 172.775 35.859 C 171.87 35.256 170.769 34.955 169.471 34.955 C 168.196 34.955 167.107 35.256 166.203 35.859 C 165.298 36.462 164.615 37.261 164.152 38.258 C 163.687 39.255 163.456 40.356 163.456 41.561 C 163.456 42.744 163.687 43.845 164.152 44.865 C 164.615 45.862 165.298 46.661 166.203 47.264 C 167.107 47.867 168.196 48.168 169.471 48.168 Z M 181.667 50.255 L 181.667 32.868 L 184.275 32.868 L 184.275 37.145 C 184.368 36.844 184.542 36.449 184.797 35.963 C 185.075 35.453 185.469 34.944 185.979 34.433 C 186.489 33.923 187.127 33.494 187.892 33.147 C 188.679 32.775 189.607 32.591 190.673 32.591 L 190.847 32.591 L 190.847 35.198 L 190.534 35.198 C 189.236 35.198 188.112 35.557 187.161 36.276 C 186.234 36.971 185.516 37.887 185.005 39.023 C 184.518 40.136 184.275 41.33 184.275 42.605 L 184.275 50.255 L 181.667 50.255 Z M 193.549 29.948 L 193.549 26.54 L 196.366 26.54 L 196.366 29.948 L 193.549 29.948 Z M 193.654 50.255 L 193.654 32.868 L 196.261 32.868 L 196.261 50.255 L 193.654 50.255 Z M 200.785 50.255 L 200.785 25.915 L 203.392 25.915 L 203.392 50.255 L 200.785 50.255 Z M 207.916 50.255 L 207.916 25.915 L 210.523 25.915 L 210.523 50.255 L 207.916 50.255 Z M 214.943 29.948 L 214.943 26.54 L 217.759 26.54 L 217.759 29.948 L 214.943 29.948 Z M 215.046 50.255 L 215.046 32.868 L 217.655 32.868 L 217.655 50.255 L 215.046 50.255 Z M 229.515 50.532 C 227.822 50.532 226.338 50.139 225.063 49.35 C 223.812 48.539 222.838 47.45 222.143 46.082 C 221.448 44.714 221.099 43.207 221.099 41.561 C 221.099 39.892 221.448 38.385 222.143 37.041 C 222.838 35.673 223.812 34.595 225.063 33.807 C 226.338 32.996 227.822 32.591 229.515 32.591 C 230.951 32.591 232.18 32.868 233.2 33.424 C 234.243 33.982 235.089 34.735 235.738 35.685 L 235.738 32.868 L 238.347 32.868 L 238.347 50.255 L 235.738 50.255 L 235.738 47.473 C 235.089 48.399 234.243 49.141 233.2 49.698 C 232.18 50.255 230.951 50.532 229.515 50.532 Z M 229.862 48.168 C 231.16 48.168 232.25 47.867 233.13 47.264 C 234.035 46.661 234.718 45.862 235.182 44.865 C 235.646 43.845 235.878 42.744 235.878 41.561 C 235.878 40.356 235.646 39.255 235.182 38.258 C 234.718 37.261 234.035 36.462 233.13 35.859 C 232.25 35.256 231.16 34.955 229.862 34.955 C 228.587 34.955 227.486 35.256 226.558 35.859 C 225.632 36.462 224.924 37.261 224.437 38.258 C 223.951 39.255 223.708 40.356 223.708 41.561 C 223.708 42.744 223.951 43.845 224.437 44.865 C 224.924 45.862 225.632 46.661 226.558 47.264 C 227.486 47.867 228.587 48.168 229.862 48.168 Z" fill="#9E39C5"/>
  <path d="M 27.571 59.047 C 26.723 57.666 23.777 57.839 22.56 57.937 C 18.651 58.247 12.031 60.222 8.035 61.225 L 2.71 62.456 C 2.207 62.496 1.247 62.497 1.134 61.641 C 0.978 60.476 3.852 58.947 4.596 58.481 C 7.649 56.574 14.364 54.012 16.244 50.987 C 13.249 49.064 13.154 49.422 10.063 48.633 C 9.483 48.484 8.411 48.252 8.382 47.296 C 8.351 46.273 9.82 45.696 10.448 45.385 L 16.945 42.071 L 33.454 33.209 C 37.155 31.492 41.809 30.202 45.839 32.309 C 47.87 33.369 49.378 35.759 50.365 38.057 C 50.947 39.407 51.278 40.399 51.561 41.862 C 53.459 51.724 44.428 57.543 38.675 61.299 L 34.836 63.699 L 28.839 67.335 C 27.362 68.216 26.765 69.02 25.219 67.628 C 26.145 65.931 28.845 61.125 27.571 59.047 Z M 5.904 60.072 L 5.763 59.606 L 5.646 59.906 L 5.904 60.072 Z M 10.552 58.922 C 14.048 57.956 21.358 56.061 24.826 56.273 C 29.189 56.54 30.141 59.872 28.525 64.135 L 27.939 65.631 C 29.812 65.192 33.395 62.82 35.189 61.677 C 39.656 58.831 46.61 54.563 49.362 49.441 C 51.849 44.817 49.743 36.219 45.28 33.733 C 42.188 32.013 38.384 33.051 35.446 34.116 C 31.174 35.666 24.507 39.611 20.299 41.981 L 11.322 47.071 L 14.974 48.461 C 17.713 49.659 18.085 51.79 15.87 53.744 C 13.216 56.087 8.003 57.78 6.021 59.772 C 7.556 59.894 9.087 59.323 10.552 58.922 Z M 37.397 51.378 C 30.968 46.95 33.302 35.513 40.248 35.865 C 41.51 35.931 42.765 36.52 43.879 37.309 C 48.415 40.523 48.67 48.038 44.819 51.388 C 43.167 52.828 41.278 53.002 39.202 52.54 C 38.47 52.143 38.084 51.951 37.397 51.378 Z M 42.104 23.787 C 44.228 17.323 50.079 21.436 53.283 24.846 C 58.135 30.01 62.594 39.155 63.627 46.627 C 64.239 51.054 63.998 58.516 58.806 57.711 C 55.898 57.257 53.672 54.805 51.43 52.643 C 52.644 50.128 53.267 49.337 53.493 46.103 C 53.862 40.832 51.1 33.629 47.085 30.776 C 45.535 29.674 43.332 29.355 41.612 29.091 C 41.489 27.218 41.543 25.501 42.104 23.787 Z" fill="#9E39C5"/>
</svg>