<?xml version="1.0" encoding="utf-8"?>
<svg viewBox="90.3 106.498 806.789 546.15" width="806.789" height="546.15" xmlns="http://www.w3.org/2000/svg">
  <rect x="194.853" y="259.648" width="2" height="107" fill="#0B1D51"/>
  <rect x="194.853" y="398.498" width="2" height="94.149" fill="#0B1D51"/>
  <rect x="191.853" y="507.648" width="155" height="2" fill="#0B1D51"/>
  <rect x="125.853" y="534.648" width="2" height="85" fill="#0B1D51"/>
  <rect x="143.853" y="634.648" width="235" height="2" fill="#0B1D51"/>
  <rect x="572.853" y="191.648" width="2" height="101" fill="#0B1D51"/>
  <rect x="410.819" y="308.648" width="147.034" height="2" fill="#0B1D51"/>
  <rect x="393.853" y="324.648" width="2" height="135" fill="#0B1D51"/>
  <path d="M 195.853 399.648 C 182.767 399.648 174.587 385.481 181.131 374.148 C 187.674 362.815 204.032 362.815 210.576 374.148 C 212.068 376.732 212.853 379.664 212.853 382.648 C 212.843 392.032 205.238 399.637 195.853 399.648 Z M 195.853 367.648 C 184.306 367.648 177.089 380.148 182.863 390.148 C 188.636 400.148 203.07 400.148 208.844 390.148 C 210.16 387.868 210.853 385.281 210.853 382.648 C 210.844 374.367 204.134 367.657 195.853 367.648 Z" fill="#0B1D51"/>
  <path d="M 127.853 652.648 C 114.767 652.648 106.587 638.481 113.131 627.148 C 119.674 615.815 136.032 615.815 142.576 627.148 C 144.068 629.732 144.853 632.664 144.853 635.648 C 144.843 645.032 137.238 652.637 127.853 652.648 Z M 127.853 620.648 C 116.306 620.648 109.089 633.148 114.863 643.148 C 120.636 653.148 135.07 653.148 140.844 643.148 C 142.16 640.868 142.853 638.281 142.853 635.648 C 142.844 627.367 136.134 620.657 127.853 620.648 Z" fill="#0B1D51"/>
  <circle cx="196.853" cy="508.648" r="16" fill="#FF9914"/>
  <rect x="609.853" y="381.648" width="166" height="2" fill="#0B1D51"/>
  <rect x="592.853" y="398.498" width="2" height="94.149" fill="#0B1D51"/>
  <rect x="443.853" y="507.648" width="133" height="2" fill="#0B1D51"/>
  <rect x="677.853" y="516.648" width="138" height="2" fill="#0B1D51"/>
  <rect x="661.853" y="534.648" width="2" height="85" fill="#0B1D51"/>
  <rect x="410.853" y="634.648" width="235" height="2" fill="#0B1D51"/>
  <rect x="393.853" y="557.648" width="2" height="62" fill="#0B1D51"/>
  <circle cx="593.853" cy="382.648" r="16" fill="#00C444"/>
  <path d="M 573.853 325.648 C 560.767 325.648 552.587 311.481 559.131 300.148 C 565.674 288.815 582.032 288.815 588.576 300.148 C 590.068 302.732 590.853 305.664 590.853 308.648 C 590.843 318.032 583.238 325.637 573.853 325.648 Z M 573.853 293.648 C 562.306 293.648 555.089 306.148 560.863 316.148 C 566.636 326.148 581.07 326.148 586.844 316.148 C 588.16 313.868 588.853 311.281 588.853 308.648 C 588.844 300.367 582.134 293.657 573.853 293.648 Z" fill="#0B1D51"/>
  <path d="M 394.853 325.648 C 381.767 325.648 373.587 311.481 380.131 300.148 C 386.674 288.815 403.032 288.815 409.576 300.148 C 411.068 302.732 411.853 305.664 411.853 308.648 C 411.843 318.032 404.238 325.637 394.853 325.648 Z M 394.853 293.648 C 383.306 293.648 376.089 306.148 381.863 316.148 C 387.636 326.148 402.07 326.148 407.844 316.148 C 409.16 313.868 409.853 311.281 409.853 308.648 C 409.844 300.367 403.134 293.657 394.853 293.648 Z" fill="#0B1D51"/>
  <path d="M 661.853 535.648 C 648.767 535.648 640.587 521.481 647.131 510.148 C 653.674 498.815 670.032 498.815 676.576 510.148 C 678.068 512.732 678.853 515.664 678.853 518.648 C 678.843 528.032 671.238 535.637 661.853 535.648 Z M 661.853 503.648 C 650.306 503.648 643.089 516.148 648.863 526.148 C 654.636 536.148 669.07 536.148 674.844 526.148 C 676.16 523.868 676.853 521.281 676.853 518.648 C 676.844 510.367 670.134 503.657 661.853 503.648 Z" fill="#0B1D51"/>
  <circle cx="661.853" cy="635.648" r="16" fill="#4285F4"/>
  <path d="M 394.853 652.648 C 381.767 652.648 373.587 638.481 380.131 627.148 C 386.674 615.815 403.032 615.815 409.576 627.148 C 411.068 629.732 411.853 632.664 411.853 635.648 C 411.843 645.032 404.238 652.637 394.853 652.648 Z M 394.853 620.648 C 383.306 620.648 376.089 633.148 381.863 643.148 C 387.636 653.148 402.07 653.148 407.844 643.148 C 409.16 640.868 409.853 638.281 409.853 635.648 C 409.844 627.367 403.134 620.657 394.853 620.648 Z" fill="#0B1D51"/>
  <path d="M 592.853 525.648 C 579.767 525.648 571.587 511.481 578.131 500.148 C 584.674 488.815 601.032 488.815 607.576 500.148 C 609.068 502.732 609.853 505.664 609.853 508.648 C 609.843 518.032 602.238 525.637 592.853 525.648 Z M 592.853 493.648 C 581.306 493.648 574.089 506.148 579.863 516.148 C 585.636 526.148 600.07 526.148 605.844 516.148 C 607.16 513.868 607.853 511.281 607.853 508.648 C 607.844 500.367 601.134 493.657 592.853 493.648 Z" fill="#0B1D51"/>
  <g id="Layer_2_1_" transform="matrix(0.257188, 0, 0, 0.257188, 348.65033, 462.930084)" style="">
    <g id="Layer_1-2">
      <path class="st0" d="M102.8,172c-0.8,13.9,9.9,25.8,23.8,26.6c0.5,0,1,0,1.5,0c14,0,25.3-11.3,25.2-25.3c0-14-11.3-25.3-25.3-25.2    C114.6,148.1,103.5,158.6,102.8,172z" style="fill: rgb(0, 49, 168);"/>
      <path class="st0" d="M8.6,165.5c-4.5-0.3-8.4,3.2-8.6,7.7s3.2,8.4,7.7,8.6c4.5,0.3,8.3-3.2,8.6-7.7    C16.6,169.6,13.1,165.8,8.6,165.5C8.6,165.5,8.6,165.5,8.6,165.5z" style="fill: rgb(0, 49, 168);"/>
      <path class="st0" d="M101.2,25.4c4-2,5.6-7,3.6-11c-2-4-7-5.6-11-3.6c-4,2-5.6,6.9-3.6,10.9C92.2,25.8,97.1,27.5,101.2,25.4    C101.1,25.4,101.2,25.4,101.2,25.4z" style="fill: rgb(0, 49, 168);"/>
      <path class="st0" d="M126.8,70.1c6.2-3.1,8.7-10.7,5.6-16.9s-10.7-8.7-16.9-5.6c-6.2,3.1-8.7,10.7-5.6,16.9    C113,70.7,120.6,73.2,126.8,70.1z" style="fill: rgb(0, 49, 168);"/>
      <path class="st0" d="M40.6,100.8c4.8,3.1,11.2,1.8,14.4-3c3.1-4.8,1.8-11.2-3-14.4c-4.8-3.1-11.2-1.8-14.4,3c0,0,0,0,0,0    C34.4,91.2,35.8,97.7,40.6,100.8z" style="fill: rgb(0, 49, 168);"/>
      <path class="st0" d="M55.9,161c-7-0.4-12.9,4.9-13.3,11.9s4.9,12.9,11.9,13.3c7,0.4,12.9-4.9,13.3-11.9c0,0,0,0,0,0    C68.2,167.4,62.9,161.4,55.9,161z" style="fill: rgb(0, 49, 168);"/>
      <path class="st0" d="M42,245.7c-5.1,2.6-7.2,8.8-4.6,14c2.6,5.1,8.8,7.2,14,4.6c5.1-2.6,7.2-8.8,4.6-14c0,0,0,0,0,0    C53.4,245.2,47.1,243.1,42,245.7C42,245.7,42,245.7,42,245.7z" style="fill: rgb(0, 49, 168);"/>
      <path class="st0" d="M91,134.9c6.9,4.5,16.1,2.6,20.5-4.3c4.5-6.9,2.6-16.1-4.3-20.5c-6.9-4.5-16.1-2.6-20.5,4.3    C82.2,121.2,84.1,130.4,91,134.9C91,134.9,91,134.9,91,134.9z" style="fill: rgb(0, 49, 168);"/>
      <path class="st0" d="M246.5,69.1c5.8,3.8,13.7,2.2,17.5-3.6s2.2-13.7-3.6-17.5c-5.8-3.8-13.7-2.2-17.5,3.6c0,0,0,0,0,0    C239,57.5,240.6,65.3,246.5,69.1C246.5,69.1,246.5,69.1,246.5,69.1z" style="fill: rgb(0, 49, 168);"/>
      <path class="st0" d="M272.3,24.6c3.8,2.5,8.8,1.4,11.3-2.4s1.4-8.8-2.4-11.3c-3.8-2.5-8.8-1.4-11.3,2.3    C267.5,17,268.6,22.1,272.3,24.6C272.3,24.6,272.3,24.6,272.3,24.6z" style="fill: rgb(0, 49, 168);"/>
      <path class="st0" d="M248.4,147.9c-13.9-0.8-25.9,9.9-26.6,23.8c-0.8,13.9,9.9,25.9,23.8,26.6c0.5,0,1,0,1.4,0    c13.9,0,25.2-11.3,25.2-25.3C272.3,159.7,261.8,148.6,248.4,147.9L248.4,147.9z" style="fill: rgb(0, 49, 168);"/>
      <path class="st0" d="M135.1,133.1c4.3,8.5,13,13.9,22.6,13.9c13.9,0,25.2-11.3,25.2-25.3c0-3.9-0.9-7.8-2.7-11.4    c-6.3-12.5-21.5-17.5-33.9-11.2C133.8,105.5,128.8,120.7,135.1,133.1L135.1,133.1z" style="fill: rgb(0, 49, 168);"/>
      <path class="st0" d="M333,100.8c5.1-2.6,7.1-8.9,4.5-14c-2.6-5.1-8.9-7.1-14-4.5c-5.1,2.6-7.1,8.8-4.6,13.9    C321.6,101.3,327.8,103.4,333,100.8C333,100.8,333,100.8,333,100.8z" style="fill: rgb(0, 49, 168);"/>
      <path class="st0" d="M269,108.8c-7.3,3.7-10.3,12.6-6.6,19.9c3.7,7.3,12.6,10.3,19.9,6.6c7.3-3.7,10.3-12.6,6.6-19.9    C285.2,108.1,276.3,105.2,269,108.8z" style="fill: rgb(0, 49, 168);"/>
      <path class="st0" d="M186.5,20.8c5.7,0.3,10.6-4.1,11-9.8s-4.1-10.6-9.8-11c-5.7-0.3-10.6,4-11,9.7    C176.4,15.5,180.8,20.4,186.5,20.8C186.5,20.8,186.5,20.8,186.5,20.8z" style="fill: rgb(0, 49, 168);"/>
      <path class="st0" d="M186.4,86.1c8.2,0.5,15.2-5.8,15.6-14c0.5-8.2-5.8-15.2-14-15.6c-8.2-0.5-15.2,5.8-15.6,14    C172,78.7,178.2,85.7,186.4,86.1C186.4,86.1,186.4,86.1,186.4,86.1z" style="fill: rgb(0, 49, 168);"/>
      <path class="st0" d="M106,237.7c7.3-3.7,10.3-12.6,6.6-19.9c-3.7-7.3-12.6-10.3-19.9-6.6c-7.3,3.7-10.3,12.6-6.6,19.9    C89.8,238.4,98.7,241.4,106,237.7z" style="fill: rgb(0, 49, 168);"/>
      <path class="st0" d="M196,107.8c-7.6,11.7-4.4,27.3,7.3,34.9c11.7,7.6,27.3,4.4,34.9-7.3c7.6-11.7,4.4-27.3-7.3-34.9    c-4.1-2.7-8.9-4.1-13.8-4.1C208.6,96.4,200.7,100.7,196,107.8z" style="fill: rgb(0, 49, 168);"/>
      <path class="st0" d="M239.9,213.4c-6.3-12.5-21.5-17.5-33.9-11.2c-12.5,6.3-17.5,21.5-11.2,33.9c6.3,12.5,21.5,17.5,33.9,11.2    c0,0,0,0,0,0c12.4-6.2,17.5-21.2,11.3-33.7C240,213.5,240,213.5,239.9,213.4z" style="fill: rgb(0, 49, 168);"/>
      <path class="st0" d="M284,211.6c-6.9-4.5-16.1-2.6-20.5,4.3c-4.5,6.9-2.6,16.1,4.3,20.5c6.9,4.5,16.1,2.6,20.5-4.3    C292.8,225.3,290.9,216.1,284,211.6C284,211.6,284,211.6,284,211.6z" style="fill: rgb(0, 49, 168);"/>
      <path class="st0" d="M332.4,173.7c0.4-7-4.9-12.9-11.9-13.3c-7-0.4-12.9,4.9-13.3,11.9c-0.4,7,4.9,12.9,11.9,13.3c0,0,0,0,0,0    C326,186,332,180.6,332.4,173.7z" style="fill: rgb(0, 49, 168);"/>
      <path class="st0" d="M367.3,164.7c-4.5-0.3-8.4,3.2-8.6,7.7s3.2,8.4,7.7,8.6c4.5,0.3,8.3-3.2,8.6-7.7    C375.2,168.8,371.8,165,367.3,164.7z" style="fill: rgb(0, 49, 168);"/>
      <path class="st0" d="M334.4,245.7c-4.8-3.1-11.2-1.8-14.4,3c-3.1,4.8-1.8,11.2,3,14.4c4.8,3.1,11.2,1.8,14.4-3    C340.6,255.3,339.2,248.8,334.4,245.7C334.4,245.7,334.4,245.7,334.4,245.7z" style="fill: rgb(0, 49, 168);"/>
      <path class="st0" d="M102.6,321.9c-3.8-2.5-8.8-1.4-11.3,2.3c-2.5,3.8-1.4,8.8,2.3,11.3c3.8,2.5,8.8,1.4,11.3-2.3c0,0,0,0,0,0    C107.5,329.5,106.4,324.4,102.6,321.9z" style="fill: rgb(0, 49, 168);"/>
      <path class="st0" d="M273.8,321.1c-4,2-5.6,7-3.6,11c2,4,7,5.6,11,3.6c4-2,5.6-6.9,3.6-10.9C282.8,320.7,277.9,319,273.8,321.1    C273.9,321.1,273.8,321.1,273.8,321.1z" style="fill: rgb(0, 49, 168);"/>
      <path class="st0" d="M179,238.7c7.6-11.7,4.4-27.3-7.3-35c-11.7-7.6-27.3-4.4-35,7.3s-4.4,27.3,7.3,35c4.1,2.7,8.9,4.1,13.8,4.1    C166.4,250.2,174.3,245.9,179,238.7z" style="fill: rgb(0, 49, 168);"/>
      <path class="st0" d="M128.5,277.4c-5.8-3.8-13.7-2.2-17.5,3.6c-3.8,5.8-2.2,13.7,3.6,17.5s13.7,2.2,17.5-3.6c0,0,0,0,0,0    C136,289.1,134.4,281.2,128.5,277.4z" style="fill: rgb(0, 49, 168);"/>
      <path class="st0" d="M187.4,325.7c-5.7-0.3-10.6,4.1-11,9.8s4.1,10.6,9.8,11c5.7,0.3,10.6-4,11-9.7    C197.5,331,193.1,326.1,187.4,325.7C187.4,325.7,187.4,325.7,187.4,325.7z" style="fill: rgb(0, 49, 168);"/>
      <path class="st0" d="M187.5,260.4c-8.2-0.5-15.2,5.8-15.6,14c-0.5,8.2,5.8,15.2,14,15.6c8.2,0.4,15.2-5.8,15.6-14    C202,267.9,195.7,260.8,187.5,260.4C187.5,260.4,187.5,260.4,187.5,260.4z" style="fill: rgb(0, 49, 168);"/>
      <path class="st0" d="M248.2,276.4c-6.2,3.2-8.7,10.8-5.5,17c3.2,6.2,10.8,8.7,17,5.5c6.2-3.1,8.7-10.7,5.6-16.9    C262.1,275.8,254.5,273.2,248.2,276.4C248.2,276.4,248.2,276.4,248.2,276.4z" style="fill: rgb(0, 49, 168);"/>
    </g>
  </g>
  <path fill-rule="evenodd" d="M 537.3 117.745 C 537.3 111.534 542.336 106.498 548.547 106.498 L 599.159 106.498 C 605.371 106.498 610.406 111.534 610.406 117.745 L 610.406 154.298 C 610.406 160.51 605.371 165.545 599.159 165.545 L 587.912 165.545 L 587.912 166.509 C 587.912 168.747 588.801 170.895 590.383 172.473 L 592.711 174.805 C 594.24 176.337 593.538 178.95 591.447 179.509 C 591.211 179.572 590.968 179.604 590.724 179.604 L 556.983 179.604 C 554.818 179.602 553.467 177.258 554.551 175.384 C 554.674 175.173 554.823 174.978 554.996 174.805 L 557.324 172.473 C 558.905 170.892 559.793 168.748 559.794 166.513 L 559.794 165.545 L 548.547 165.545 C 542.336 165.545 537.3 160.51 537.3 154.298 L 537.3 117.745 Z M 542.924 117.745 L 542.924 145.863 C 542.924 148.969 545.441 151.486 548.547 151.486 L 599.159 151.486 C 602.265 151.486 604.783 148.969 604.783 145.863 L 604.783 117.745 C 604.783 114.639 602.265 112.122 599.159 112.122 L 548.547 112.122 C 545.441 112.122 542.924 114.639 542.924 117.745 Z" clip-rule="evenodd" style="fill: rgb(11, 29, 81);"/>
  <path fill-rule="evenodd" d="M 792.959 357.342 C 792.959 351.131 797.995 346.095 804.206 346.095 L 854.818 346.095 C 861.03 346.095 866.065 351.131 866.065 357.342 L 866.065 393.895 C 866.065 400.107 861.03 405.142 854.818 405.142 L 843.571 405.142 L 843.571 406.106 C 843.571 408.344 844.46 410.492 846.042 412.07 L 848.37 414.402 C 849.899 415.934 849.197 418.547 847.106 419.106 C 846.87 419.169 846.627 419.201 846.383 419.201 L 812.642 419.201 C 810.477 419.199 809.126 416.855 810.21 414.981 C 810.333 414.77 810.482 414.575 810.655 414.402 L 812.983 412.07 C 814.564 410.489 815.452 408.345 815.453 406.11 L 815.453 405.142 L 804.206 405.142 C 797.995 405.142 792.959 400.107 792.959 393.895 L 792.959 357.342 Z M 798.583 357.342 L 798.583 385.46 C 798.583 388.566 801.1 391.083 804.206 391.083 L 854.818 391.083 C 857.924 391.083 860.442 388.566 860.442 385.46 L 860.442 357.342 C 860.442 354.236 857.924 351.719 854.818 351.719 L 804.206 351.719 C 801.1 351.719 798.583 354.236 798.583 357.342 Z" clip-rule="evenodd" style="fill: rgb(11, 29, 81);"/>
  <path fill-rule="evenodd" d="M 823.983 492.342 C 823.983 486.131 829.019 481.095 835.23 481.095 L 885.842 481.095 C 892.054 481.095 897.089 486.131 897.089 492.342 L 897.089 528.895 C 897.089 535.107 892.054 540.142 885.842 540.142 L 874.595 540.142 L 874.595 541.106 C 874.595 543.344 875.484 545.492 877.066 547.07 L 879.394 549.402 C 880.923 550.934 880.221 553.547 878.13 554.106 C 877.894 554.169 877.651 554.201 877.407 554.201 L 843.666 554.201 C 841.501 554.199 840.15 551.855 841.234 549.981 C 841.357 549.77 841.506 549.575 841.679 549.402 L 844.007 547.07 C 845.588 545.489 846.476 543.345 846.477 541.11 L 846.477 540.142 L 835.23 540.142 C 829.019 540.142 823.983 535.107 823.983 528.895 L 823.983 492.342 Z M 829.607 492.342 L 829.607 520.46 C 829.607 523.566 832.124 526.083 835.23 526.083 L 885.842 526.083 C 888.948 526.083 891.466 523.566 891.466 520.46 L 891.466 492.342 C 891.466 489.236 888.948 486.719 885.842 486.719 L 835.23 486.719 C 832.124 486.719 829.607 489.236 829.607 492.342 Z" clip-rule="evenodd" style="fill: rgb(11, 29, 81);"/>
  <path fill-rule="evenodd" d="M 159.3 186.053 C 159.3 179.842 164.336 174.806 170.547 174.806 L 221.159 174.806 C 227.371 174.806 232.406 179.842 232.406 186.053 L 232.406 222.606 C 232.406 228.818 227.371 233.853 221.159 233.853 L 209.912 233.853 L 209.912 234.817 C 209.912 237.055 210.801 239.203 212.383 240.781 L 214.711 243.113 C 216.24 244.645 215.538 247.258 213.447 247.817 C 213.211 247.88 212.968 247.912 212.724 247.912 L 178.983 247.912 C 176.818 247.91 175.467 245.566 176.551 243.692 C 176.674 243.481 176.823 243.286 176.996 243.113 L 179.324 240.781 C 180.905 239.2 181.793 237.056 181.794 234.821 L 181.794 233.853 L 170.547 233.853 C 164.336 233.853 159.3 228.818 159.3 222.606 L 159.3 186.053 Z M 164.924 186.053 L 164.924 214.171 C 164.924 217.277 167.441 219.794 170.547 219.794 L 221.159 219.794 C 224.265 219.794 226.783 217.277 226.783 214.171 L 226.783 186.053 C 226.783 182.947 224.265 180.43 221.159 180.43 L 170.547 180.43 C 167.441 180.43 164.924 182.947 164.924 186.053 Z" clip-rule="evenodd" style="fill: rgb(11, 29, 81);"/>
  <path fill-rule="evenodd" d="M 90.3 462.402 C 90.3 456.191 95.336 451.155 101.547 451.155 L 152.159 451.155 C 158.371 451.155 163.406 456.191 163.406 462.402 L 163.406 498.955 C 163.406 505.167 158.371 510.202 152.159 510.202 L 140.912 510.202 L 140.912 511.166 C 140.912 513.404 141.801 515.552 143.383 517.13 L 145.711 519.462 C 147.24 520.994 146.538 523.607 144.447 524.166 C 144.211 524.229 143.968 524.261 143.724 524.261 L 109.983 524.261 C 107.818 524.259 106.467 521.915 107.551 520.041 C 107.674 519.83 107.823 519.635 107.996 519.462 L 110.324 517.13 C 111.905 515.549 112.793 513.405 112.794 511.17 L 112.794 510.202 L 101.547 510.202 C 95.336 510.202 90.3 505.167 90.3 498.955 L 90.3 462.402 Z M 95.924 462.402 L 95.924 490.52 C 95.924 493.626 98.441 496.143 101.547 496.143 L 152.159 496.143 C 155.265 496.143 157.783 493.626 157.783 490.52 L 157.783 462.402 C 157.783 459.296 155.265 456.779 152.159 456.779 L 101.547 456.779 C 98.441 456.779 95.924 459.296 95.924 462.402 Z" clip-rule="evenodd" style="fill: rgb(11, 29, 81);"/>
</svg>