<?xml version="1.0" encoding="utf-8"?>
<svg viewBox="201.5 175.5 81.55 52.708" xmlns="http://www.w3.org/2000/svg">
  <g>
    <path fill="#4285F4" d="M243.5,216c5.3-1.3,11.3-2,17.1-2.4v-11.3c-46,5-41,11.8-38.8,13.7c2.5,2.1,10.5,3.7,5.1,7.5 c-5.5,3.8-25.4,4.7-25.4,4.7c49.6,0.3,41.7-8.3,39.7-9.8C239.2,216.9,243.5,216,243.5,216z"/>
    <g fill="#0B1D51" >
      <path d="M248.7,201.6C248.7,201.6,248.7,201.6,248.7,201.6l1.7,0c0.1,0,0.3,0,0.4,0h2.8c1.6,0,2.8-1.3,2.8-2.8 c0-1.6-1.3-2.8-2.8-2.8h-2.8c-0.1,0-0.3,0-0.4,0v0h-4c0,0,0,0,0,0c-0.8-2-1.6-4.1-2.5-6.1c-1.5-3.7-0.3-0.8-1.7-4.2h0l-1.7-3.9 c-1.5-3.5-2.8-6.3-6.3-6.3c-3.5,0-5.1,3.3-6.3,6.3l-1.7,3.9c0,0,0,0,0,0c-2.4,5.9-1.9,4.4-4.2,10.3c0,0,0,0,0,0h-4.3v0 c0,0-0.1,0-0.1,0h-2.8c-1.6,0-2.8,1.3-2.8,2.8c0,1.6,1.3,2.8,2.8,2.8h2.8c0.2,0,0.3,0,0.4,0h1.6l0,0c-0.7,1.8-1.5,3.6-2.2,5.4 c0,0,0,0,0,0H210c-0.1,0-0.2,0-0.3,0h-2.8c-1.5,0-2.8,1.3-2.8,2.8c0,1.5,1.3,2.8,2.8,2.8h1c0,0,0,0,0,0h7.3c0,0,0,0,0,0 c-0.7,1.8-1.5,3.7-2.2,5.5l0,0l-0.1,0.2c0,0,0,0.1,0,0.1l0,0l-0.3,0.8c-0.8,1.9,0.2,4.1,2.1,4.9c1.9,0.8,4.1-0.2,4.9-2.1l0.8-2 c0.4-1,1-2.4,1.1-2.6c0,0,0,0,0,0c-0.2-0.1-0.4-0.3-0.6-0.5c-2-1.7-1.8-3.4-1.6-4.2c0.7-2.1,3.5-3.9,8.5-5.6c0,0,0,0,0,0h-2.1 c0,0,0,0,0,0l0.3-0.7c0.6-1.5,1.1-2.9,1.8-4.2c0.1-0.2,0.5-0.4,0.8-0.4c3.7,0,7.5,0,11.2,0c0.3,0,0.7,0.2,0.8,0.5 c0.3,0.6,0.5,1.2,0.7,1.8c0,0,0,0,0,0c2.1-0.4,4.3-0.7,6.6-1.1C248.3,202.3,248.4,202.1,248.7,201.6z M238.2,196h-7.9 c0,0,0,0,0,0c0.9-2.3,1.8-4.5,2.8-6.9l0.1-0.3c0.2-0.5,0.5-1,1-1c0.6,0,0.8,0.5,1,1l0.3,0.6h0C236.4,191.6,237.3,193.8,238.2,196 C238.2,196,238.2,196,238.2,196z"/>
      <path d="M255.6,218.8L255.6,218.8c-0.1-0.1-0.1-0.3-0.2-0.4l-0.1-0.3l0,0c-0.4-1-0.6-1.5-1.1-2.8c0,0,0,0,0,0 c-2.6,0.3-5.2,0.7-7.7,1.2c0,0,0,0,0,0c0.5,1.2,0.9,2.3,1.4,3.5l0,0l0.8,2c0.8,1.9,3,2.9,4.9,2.1s2.9-3,2.1-4.9L255.6,218.8z"/>
    </g>
    <path fill="#00C444" d="M262.4,198.7v17.6c0,2.1,2.3,3.4,4.1,2.3l15.2-8.8c1.8-1,1.8-3.6,0-4.7l-15.2-8.8 C264.6,195.3,262.4,196.6,262.4,198.7z"/>
  </g>
</svg>