<?xml version="1.0" encoding="utf-8"?>
<svg viewBox="201.5 173.113 220.855 58.712" width="220.855" height="58.712" xmlns="http://www.w3.org/2000/svg">
  <defs>
    <style>.text{fill: #0B1D51;}</style>
  </defs>
  <g>
    <path fill="#4285F4" d="M243.5,216c5.3-1.3,11.3-2,17.1-2.4v-11.3c-46,5-41,11.8-38.8,13.7c2.5,2.1,10.5,3.7,5.1,7.5 c-5.5,3.8-25.4,4.7-25.4,4.7c49.6,0.3,41.7-8.3,39.7-9.8C239.2,216.9,243.5,216,243.5,216z"/>
    <g class="text">
      <path d="M248.7,201.6C248.7,201.6,248.7,201.6,248.7,201.6l1.7,0c0.1,0,0.3,0,0.4,0h2.8c1.6,0,2.8-1.3,2.8-2.8 c0-1.6-1.3-2.8-2.8-2.8h-2.8c-0.1,0-0.3,0-0.4,0v0h-4c0,0,0,0,0,0c-0.8-2-1.6-4.1-2.5-6.1c-1.5-3.7-0.3-0.8-1.7-4.2h0l-1.7-3.9 c-1.5-3.5-2.8-6.3-6.3-6.3c-3.5,0-5.1,3.3-6.3,6.3l-1.7,3.9c0,0,0,0,0,0c-2.4,5.9-1.9,4.4-4.2,10.3c0,0,0,0,0,0h-4.3v0 c0,0-0.1,0-0.1,0h-2.8c-1.6,0-2.8,1.3-2.8,2.8c0,1.6,1.3,2.8,2.8,2.8h2.8c0.2,0,0.3,0,0.4,0h1.6l0,0c-0.7,1.8-1.5,3.6-2.2,5.4 c0,0,0,0,0,0H210c-0.1,0-0.2,0-0.3,0h-2.8c-1.5,0-2.8,1.3-2.8,2.8c0,1.5,1.3,2.8,2.8,2.8h1c0,0,0,0,0,0h7.3c0,0,0,0,0,0 c-0.7,1.8-1.5,3.7-2.2,5.5l0,0l-0.1,0.2c0,0,0,0.1,0,0.1l0,0l-0.3,0.8c-0.8,1.9,0.2,4.1,2.1,4.9c1.9,0.8,4.1-0.2,4.9-2.1l0.8-2 c0.4-1,1-2.4,1.1-2.6c0,0,0,0,0,0c-0.2-0.1-0.4-0.3-0.6-0.5c-2-1.7-1.8-3.4-1.6-4.2c0.7-2.1,3.5-3.9,8.5-5.6c0,0,0,0,0,0h-2.1 c0,0,0,0,0,0l0.3-0.7c0.6-1.5,1.1-2.9,1.8-4.2c0.1-0.2,0.5-0.4,0.8-0.4c3.7,0,7.5,0,11.2,0c0.3,0,0.7,0.2,0.8,0.5 c0.3,0.6,0.5,1.2,0.7,1.8c0,0,0,0,0,0c2.1-0.4,4.3-0.7,6.6-1.1C248.3,202.3,248.4,202.1,248.7,201.6z M238.2,196h-7.9 c0,0,0,0,0,0c0.9-2.3,1.8-4.5,2.8-6.9l0.1-0.3c0.2-0.5,0.5-1,1-1c0.6,0,0.8,0.5,1,1l0.3,0.6h0C236.4,191.6,237.3,193.8,238.2,196 C238.2,196,238.2,196,238.2,196z"/>
      <path d="M255.6,218.8L255.6,218.8c-0.1-0.1-0.1-0.3-0.2-0.4l-0.1-0.3l0,0c-0.4-1-0.6-1.5-1.1-2.8c0,0,0,0,0,0 c-2.6,0.3-5.2,0.7-7.7,1.2c0,0,0,0,0,0c0.5,1.2,0.9,2.3,1.4,3.5l0,0l0.8,2c0.8,1.9,3,2.9,4.9,2.1s2.9-3,2.1-4.9L255.6,218.8z"/>
    </g>
    <path fill="#00C444" d="M262.4,198.7v17.6c0,2.1,2.3,3.4,4.1,2.3l15.2-8.8c1.8-1,1.8-3.6,0-4.7l-15.2-8.8 C264.6,195.3,262.4,196.6,262.4,198.7z"/>
  </g>
  <path d="M 287.996 188.052 L 288.874 188.052 Q 289.362 190.881 291.118 192.588 Q 292.874 194.295 295.191 194.295 Q 296.972 194.295 298.118 193.234 Q 299.264 192.173 299.264 190.661 Q 299.264 189.466 298.435 188.649 Q 297.606 187.832 296.094 187.491 Q 293.045 186.808 291.777 186.344 Q 289.899 185.661 289.143 184.734 Q 288.264 183.661 288.264 181.783 Q 288.264 179.466 289.777 177.93 Q 291.289 176.393 293.606 176.393 Q 294.874 176.393 295.886 176.832 Q 296.899 177.271 297.923 178.149 L 299.045 176.564 L 299.923 176.564 L 299.996 183.173 L 299.191 183.173 Q 297.752 177.344 293.582 177.344 Q 291.947 177.344 290.911 178.308 Q 289.874 179.271 289.874 180.637 Q 289.874 182.027 290.825 182.832 Q 291.557 183.466 294.569 184.149 Q 297.582 184.832 298.85 185.612 Q 300.996 186.93 300.996 189.515 Q 300.996 191.954 299.362 193.564 Q 297.728 195.173 295.094 195.173 Q 292.338 195.173 290.24 193.369 L 288.874 195.052 L 287.996 195.052 Z M 302.747 183.612 L 303.162 176.808 L 317.796 176.808 L 318.137 183.612 L 317.283 183.612 Q 316.479 177.564 312.942 177.564 Q 312.308 177.564 312.027 177.795 Q 311.747 178.027 311.747 178.637 L 311.747 193.052 Q 311.747 193.905 312.82 193.905 L 314.649 193.905 L 314.649 194.832 L 306.259 194.832 L 306.259 193.905 L 308.332 193.905 Q 309.162 193.905 309.162 193.149 L 309.162 178.515 Q 309.162 177.588 307.991 177.588 Q 304.527 177.588 303.649 183.612 Z M 325.302 186.003 L 325.302 193.052 Q 325.302 193.905 326.253 193.905 L 328.18 193.905 L 328.18 194.832 L 319.79 194.832 L 319.79 193.905 L 321.57 193.905 Q 322.717 193.905 322.717 193.052 L 322.717 178.637 Q 322.717 178.125 322.461 177.93 Q 322.204 177.734 321.57 177.734 L 319.79 177.734 L 319.79 176.808 L 329.107 176.808 Q 331.79 176.808 333.302 178.003 Q 334.814 179.198 334.814 181.247 Q 334.814 182.905 333.692 184.027 Q 332.887 184.832 331.692 185.198 Q 330.839 185.466 329.009 185.661 Q 330.692 186.125 331.424 186.637 Q 332.521 187.393 332.863 188.759 Q 334.009 193.393 334.863 193.393 Q 335.326 193.393 335.631 192.71 Q 335.936 192.027 335.936 190.856 L 336.765 190.856 Q 336.765 195.027 333.692 195.027 Q 332.375 195.027 331.582 194.076 Q 330.79 193.125 330.79 191.369 Q 330.79 188.564 330.009 187.369 Q 329.107 186.003 326.765 186.003 Z M 325.302 178.612 L 325.302 185.076 L 327.448 185.076 Q 329.839 185.076 330.924 184.21 Q 332.009 183.344 332.009 181.393 Q 332.009 179.027 330.741 178.271 Q 329.839 177.734 327.4 177.734 Q 326.302 177.734 326.131 177.759 Q 325.302 177.881 325.302 178.612 Z M 338.64 177.734 L 338.64 176.808 L 352.908 176.808 L 353.274 182.881 L 352.444 182.881 Q 351.957 180.173 350.957 178.954 Q 349.957 177.734 348.152 177.734 L 344.615 177.734 Q 343.737 177.734 343.737 178.637 L 343.737 185.052 L 345.298 185.052 Q 346.64 185.052 347.396 184.149 Q 348.152 183.247 348.152 181.442 L 349.005 181.442 L 349.005 189.808 L 348.152 189.808 Q 348.152 185.954 345.176 185.954 L 343.737 185.954 L 343.737 193.1 Q 343.737 193.905 344.884 193.905 L 347.688 193.905 Q 352.249 193.905 352.908 188.125 L 353.786 188.125 L 353.493 194.832 L 338.64 194.832 L 338.64 193.905 L 339.859 193.905 Q 341.176 193.905 341.176 192.93 L 341.176 178.637 Q 341.176 177.734 340.103 177.734 Z M 358.468 191.71 L 364.615 176.417 L 365.419 176.417 L 371.907 192.905 Q 372.273 193.905 373.493 193.905 L 374.054 193.905 L 374.054 194.832 L 366.859 194.832 L 366.859 193.905 L 367.444 193.905 Q 369.346 193.905 369.346 193.149 Q 369.346 192.93 369.249 192.71 L 367.761 188.856 L 360.615 188.856 L 359.785 191.076 Q 359.566 191.661 359.541 191.808 Q 359.444 192.173 359.444 192.539 Q 359.444 193.076 360.041 193.491 Q 360.639 193.905 361.639 193.905 L 362.249 193.905 L 362.249 194.832 L 355.712 194.832 L 355.712 193.905 L 355.907 193.905 Q 357.59 193.905 358.468 191.71 Z M 367.395 187.93 L 364.249 179.905 L 361.029 187.93 Z M 375.902 177.734 L 375.902 176.808 L 381.926 176.808 L 387.292 191.027 L 392.268 176.808 L 398.414 176.808 L 398.414 177.734 L 396.56 177.734 Q 395.56 177.734 395.56 178.759 L 395.56 193.027 Q 395.56 193.905 396.804 193.905 L 398.414 193.905 L 398.414 194.832 L 390.17 194.832 L 390.17 193.905 L 391.926 193.905 Q 392.39 193.905 392.695 193.673 Q 392.999 193.442 392.999 193.027 L 392.999 177.71 L 387.024 194.832 L 386.195 194.832 L 379.78 177.783 L 379.78 190.881 Q 379.78 192.588 380.463 193.247 Q 381.146 193.905 382.731 193.905 L 382.731 194.832 L 375.902 194.832 L 375.902 193.905 Q 377.463 193.905 378.121 193.271 Q 378.78 192.637 378.78 191.027 L 378.78 178.588 Q 378.78 177.734 377.707 177.734 Z" transform="matrix(1.199028, 0, 0, 1, -57.217411, 0)" style="fill: rgb(11, 29, 81); stroke: rgb(11, 29, 81); text-transform: uppercase; white-space: pre;"/>
  <path d="M 302.216 217.588 L 303.094 217.588 Q 302.728 220.734 300.923 222.478 Q 299.118 224.222 296.289 224.222 Q 292.752 224.222 290.374 221.673 Q 287.996 219.125 287.996 215.222 Q 287.996 211.076 290.35 208.234 Q 292.704 205.393 296.118 205.393 Q 297.338 205.393 298.411 205.832 Q 299.484 206.271 300.704 207.198 L 301.557 205.442 L 302.338 205.442 L 302.63 212.71 L 301.825 212.71 Q 300.167 206.344 296.216 206.344 Q 291.069 206.344 291.069 215.198 Q 291.069 219.125 292.496 221.161 Q 293.923 223.198 296.557 223.198 Q 301.362 223.198 302.216 217.588 Z M 307.596 220.71 L 313.742 205.417 L 314.547 205.417 L 321.035 221.905 Q 321.4 222.905 322.62 222.905 L 323.181 222.905 L 323.181 223.832 L 315.986 223.832 L 315.986 222.905 L 316.571 222.905 Q 318.474 222.905 318.474 222.149 Q 318.474 221.93 318.376 221.71 L 316.888 217.856 L 309.742 217.856 L 308.913 220.076 Q 308.693 220.661 308.669 220.808 Q 308.571 221.173 308.571 221.539 Q 308.571 222.076 309.169 222.491 Q 309.766 222.905 310.766 222.905 L 311.376 222.905 L 311.376 223.832 L 304.839 223.832 L 304.839 222.905 L 305.035 222.905 Q 306.718 222.905 307.596 220.71 Z M 316.522 216.93 L 313.376 208.905 L 310.157 216.93 Z M 330.426 215.003 L 330.426 222.052 Q 330.426 222.905 331.377 222.905 L 333.304 222.905 L 333.304 223.832 L 324.914 223.832 L 324.914 222.905 L 326.694 222.905 Q 327.841 222.905 327.841 222.052 L 327.841 207.637 Q 327.841 207.125 327.585 206.93 Q 327.329 206.734 326.694 206.734 L 324.914 206.734 L 324.914 205.808 L 334.231 205.808 Q 336.914 205.808 338.426 207.003 Q 339.938 208.198 339.938 210.247 Q 339.938 211.905 338.816 213.027 Q 338.012 213.832 336.816 214.198 Q 335.963 214.466 334.133 214.661 Q 335.816 215.125 336.548 215.637 Q 337.646 216.393 337.987 217.759 Q 339.133 222.393 339.987 222.393 Q 340.451 222.393 340.755 221.71 Q 341.06 221.027 341.06 219.856 L 341.89 219.856 Q 341.89 224.027 338.816 224.027 Q 337.499 224.027 336.707 223.076 Q 335.914 222.125 335.914 220.369 Q 335.914 217.564 335.133 216.369 Q 334.231 215.003 331.89 215.003 Z M 330.426 207.612 L 330.426 214.076 L 332.573 214.076 Q 334.963 214.076 336.048 213.21 Q 337.133 212.344 337.133 210.393 Q 337.133 208.027 335.865 207.271 Q 334.963 206.734 332.524 206.734 Q 331.426 206.734 331.255 206.759 Q 330.426 206.881 330.426 207.612 Z M 343.691 206.734 L 343.691 205.808 L 353.008 205.808 Q 354.666 205.808 355.813 206.186 Q 356.959 206.564 358.13 207.661 Q 360.861 210.247 360.861 214.783 Q 360.861 218.637 359.044 220.978 Q 357.227 223.32 353.959 223.734 Q 353.593 223.783 352.995 223.808 Q 352.398 223.832 352.032 223.832 L 343.691 223.832 L 343.691 222.905 L 345.398 222.905 Q 346.569 222.905 346.569 222.052 L 346.569 207.539 Q 346.569 206.734 345.544 206.734 Z M 352.3 206.734 L 350.252 206.734 Q 349.154 206.734 349.154 207.612 L 349.154 222.027 Q 349.154 222.905 350.495 222.905 L 352.032 222.905 Q 355.13 222.905 356.52 221.015 Q 357.91 219.125 357.91 215.076 Q 357.91 210.783 356.544 208.759 Q 355.178 206.734 352.3 206.734 Z M 365.495 220.71 L 371.641 205.417 L 372.446 205.417 L 378.934 221.905 Q 379.3 222.905 380.519 222.905 L 381.08 222.905 L 381.08 223.832 L 373.885 223.832 L 373.885 222.905 L 374.471 222.905 Q 376.373 222.905 376.373 222.149 Q 376.373 221.93 376.276 221.71 L 374.788 217.856 L 367.641 217.856 L 366.812 220.076 Q 366.593 220.661 366.568 220.808 Q 366.471 221.173 366.471 221.539 Q 366.471 222.076 367.068 222.491 Q 367.666 222.905 368.666 222.905 L 369.276 222.905 L 369.276 223.832 L 362.739 223.832 L 362.739 222.905 L 362.934 222.905 Q 364.617 222.905 365.495 220.71 Z M 374.422 216.93 L 371.276 208.905 L 368.056 216.93 Z M 382.928 206.734 L 382.928 205.808 L 387.269 205.808 L 398.123 219.954 L 398.123 209.71 Q 398.123 206.71 395.464 206.71 L 395.464 205.808 L 401.806 205.808 L 401.806 206.734 L 401.562 206.734 Q 400.44 206.734 399.806 207.466 Q 399.172 208.198 399.172 209.491 L 399.172 223.832 L 398.025 223.832 L 386.757 209.1 L 386.757 219.954 Q 386.757 222.905 389.806 222.905 L 389.806 223.832 L 382.928 223.832 L 382.928 222.905 Q 384.172 222.905 384.952 222.125 Q 385.732 221.344 385.732 220.1 L 385.732 207.881 Q 384.976 207.1 384.952 207.076 Q 384.513 206.734 383.757 206.734 Z M 412.07 205.393 Q 415.704 205.393 418.143 208.052 Q 420.583 210.71 420.583 214.832 Q 420.583 218.93 418.143 221.588 Q 415.704 224.247 412.192 224.247 Q 408.68 224.247 406.265 221.564 Q 403.851 218.881 403.851 214.759 Q 403.851 210.734 406.278 208.064 Q 408.704 205.393 412.07 205.393 Z M 412.265 206.344 Q 410.802 206.344 409.643 207.125 Q 408.485 207.905 407.802 209.369 Q 407.363 210.271 407.143 211.661 Q 406.924 213.052 406.924 214.734 Q 406.924 223.295 412.192 223.295 Q 414.753 223.295 416.131 221.173 Q 417.509 219.052 417.509 214.93 Q 417.509 206.344 412.265 206.344 Z" style="fill: rgb(11, 29, 81); stroke: rgb(11, 29, 81); text-transform: uppercase; white-space: pre;"/>
</svg>