<svg width="19" height="18" viewBox="0 0 19 18" fill="none" xmlns="http://www.w3.org/2000/svg">
<path d="M9.5 9V8.81337C9.5 8.20892 9.87955 7.88891 10.2591 7.63113C10.6296 7.38224 11 7.06225 11 6.47559C11 5.65781 10.3313 5 9.5 5C8.66866 5 8 5.65781 8 6.47559M13.75 14.3829H10.35L6.56749 16.8587C6.00649 17.2268 5.25 16.8337 5.25 16.1645V14.3829C2.7 14.3829 1 12.7101 1 10.2008V5.18215C1 2.67286 2.7 1 5.25 1H13.75C16.3 1 18 2.67286 18 5.18215V10.2008C18 12.7101 16.3 14.3829 13.75 14.3829Z" stroke="#109948" stroke-width="1.5" stroke-linecap="round" stroke-linejoin="round"/>
</svg>
