<svg width="19" height="18" viewBox="0 0 19 18" fill="none" xmlns="http://www.w3.org/2000/svg">
<path d="M18.2518 9.20549L9.61925 0.550216L9.61877 0.54974C9.60298 0.533863 9.58431 0.521357 9.56388 0.512855C9.54346 0.504354 9.52162 0.5 9.49961 0.5C9.47759 0.5 9.45576 0.504354 9.43533 0.512855C9.4149 0.521356 9.39624 0.533862 9.38044 0.549743L9.37997 0.550216L0.747375 9.20549C0.747334 9.20553 0.74729 9.20557 0.747248 9.20562C0.417776 9.53633 0.417814 10.0728 0.745989 10.4034L0.746744 10.4041C0.903328 10.5626 1.11646 10.651 1.34055 10.651H2.25014H2.75014V11.151V17.3271C2.75014 17.4247 2.82756 17.5 2.9208 17.5H7.99361V13.2896V12.7896H8.49361H10.8409H11.3409V13.2896V17.5H16.0784C16.1717 17.5 16.2491 17.4247 16.2491 17.3271V11.151V10.651H16.7491H17.6587C18.1208 10.651 18.5 10.2729 18.5 9.80513C18.5 9.58055 18.4104 9.36453 18.2518 9.20549Z" stroke="#109948"/>
</svg>
