<?xml version="1.0" encoding="utf-8"?>
<svg version="1.1" id="Layer_1" x="0px" y="0px" viewBox="201.024 171.221 196.175 60.19" enable-background="new 0 0 595.3 403.8" xmlns="http://www.w3.org/2000/svg">
  <g>
    <g>
      <linearGradient id="SVGID_1_" gradientUnits="userSpaceOnUse" x1="201.4367" y1="215.2897" x2="260.6268" y2="215.2897">
        <stop offset="0" style="stop-color:#27AAE1"/>
        <stop offset="1" style="stop-color:#2780E1"/>
      </linearGradient>
      <path fill="url(#SVGID_1_)" d="M243.5,216c5.3-1.3,11.3-2,17.1-2.4v-11.3c-46,5-41,11.8-38.8,13.7c2.5,2.1,10.5,3.7,5.1,7.5 c-5.5,3.8-25.4,4.7-25.4,4.7c49.6,0.3,41.7-8.3,39.7-9.8C239.2,216.9,243.5,216,243.5,216z"/>
      <g>
        <path d="M248.7,201.6C248.7,201.6,248.7,201.6,248.7,201.6l1.7,0c0.1,0,0.3,0,0.4,0h2.8c1.6,0,2.8-1.3,2.8-2.8 c0-1.6-1.3-2.8-2.8-2.8h-2.8c-0.1,0-0.3,0-0.4,0v0h-4c0,0,0,0,0,0c-0.8-2-1.6-4.1-2.5-6.1c-1.5-3.7-0.3-0.8-1.7-4.2h0l-1.7-3.9 c-1.5-3.5-2.8-6.3-6.3-6.3c-3.5,0-5.1,3.3-6.3,6.3l-1.7,3.9c0,0,0,0,0,0c-2.4,5.9-1.9,4.4-4.2,10.3c0,0,0,0,0,0h-4.3v0 c0,0-0.1,0-0.1,0h-2.8c-1.6,0-2.8,1.3-2.8,2.8c0,1.6,1.3,2.8,2.8,2.8h2.8c0.2,0,0.3,0,0.4,0h1.6l0,0c-0.7,1.8-1.5,3.6-2.2,5.4 c0,0,0,0,0,0H210c-0.1,0-0.2,0-0.3,0h-2.8c-1.5,0-2.8,1.3-2.8,2.8c0,1.5,1.3,2.8,2.8,2.8h1c0,0,0,0,0,0h7.3c0,0,0,0,0,0 c-0.7,1.8-1.5,3.7-2.2,5.5l0,0l-0.1,0.2c0,0,0,0.1,0,0.1l0,0l-0.3,0.8c-0.8,1.9,0.2,4.1,2.1,4.9c1.9,0.8,4.1-0.2,4.9-2.1l0.8-2 c0.4-1,1-2.4,1.1-2.6c0,0,0,0,0,0c-0.2-0.1-0.4-0.3-0.6-0.5c-2-1.7-1.8-3.4-1.6-4.2c0.7-2.1,3.5-3.9,8.5-5.6c0,0,0,0,0,0h-2.1 c0,0,0,0,0,0l0.3-0.7c0.6-1.5,1.1-2.9,1.8-4.2c0.1-0.2,0.5-0.4,0.8-0.4c3.7,0,7.5,0,11.2,0c0.3,0,0.7,0.2,0.8,0.5 c0.3,0.6,0.5,1.2,0.7,1.8c0,0,0,0,0,0c2.1-0.4,4.3-0.7,6.6-1.1C248.3,202.3,248.4,202.1,248.7,201.6z M238.2,196h-7.9 c0,0,0,0,0,0c0.9-2.3,1.8-4.5,2.8-6.9l0.1-0.3c0.2-0.5,0.5-1,1-1c0.6,0,0.8,0.5,1,1l0.3,0.6h0C236.4,191.6,237.3,193.8,238.2,196 C238.2,196,238.2,196,238.2,196z"/>
        <path d="M255.6,218.8L255.6,218.8c-0.1-0.1-0.1-0.3-0.2-0.4l-0.1-0.3l0,0c-0.4-1-0.6-1.5-1.1-2.8c0,0,0,0,0,0 c-2.6,0.3-5.2,0.7-7.7,1.2c0,0,0,0,0,0c0.5,1.2,0.9,2.3,1.4,3.5l0,0l0.8,2c0.8,1.9,3,2.9,4.9,2.1s2.9-3,2.1-4.9L255.6,218.8z"/>
      </g>
      <linearGradient id="SVGID_2_" gradientUnits="userSpaceOnUse" x1="262.3959" y1="207.4473" x2="283.0002" y2="207.4473">
        <stop offset="0" style="stop-color:#009444"/>
        <stop offset="1" style="stop-color:#00C444"/>
      </linearGradient>
      <path fill="url(#SVGID_2_)" d="M262.4,198.7v17.6c0,2.1,2.3,3.4,4.1,2.3l15.2-8.8c1.8-1,1.8-3.6,0-4.7l-15.2-8.8 C264.6,195.3,262.4,196.6,262.4,198.7z"/>
    </g>
    <g>
      <path d="M281,197.3c-2.3,0-3.9-0.3-5.4-0.6c-0.3-0.1-0.6-0.3-0.6-0.6v-2.8c0-0.4,0.2-0.5,0.5-0.5c0,0,0.1,0,0.1,0 c1.2,0.1,4.3,0.3,5.4,0.3c2,0,2.5-0.6,2.5-2c0-0.8-0.4-1.3-1.9-2.2l-3.9-2.3c-2.7-1.6-3.4-3.4-3.4-5.5c0-3.1,1.8-5.6,7.3-5.6 c2.1,0,5,0.3,6.1,0.6c0.2,0.1,0.4,0.2,0.4,0.5v2.9c0,0.3-0.1,0.5-0.5,0.5c0,0,0,0-0.1,0c-0.8-0.1-4.1-0.3-6.1-0.3 c-1.6,0-2.2,0.5-2.2,1.5c0,0.8,0.4,1.2,1.9,2l3.7,2c3,1.6,3.9,3.5,3.9,5.8C288.8,194,286.8,197.3,281,197.3z"/>
      <path d="M300.6,197c-0.9,0.1-1.4,0.2-2.3,0.2c-3.1,0-4.8-0.8-4.8-4.9v-8.3l-2.3-0.4c-0.3-0.1-0.6-0.3-0.6-0.6v-1.9 c0-0.3,0.3-0.6,0.6-0.6h2.3v-2.3c0-0.3,0.3-0.5,0.6-0.6l3.5-0.6c0,0,0.1,0,0.1,0c0.3,0,0.5,0.2,0.5,0.5v3h2.3 c0.3,0,0.6,0.3,0.6,0.6v2.3c0,0.3-0.3,0.6-0.6,0.6h-2.3v8.3c0,1.1,0.1,1.3,0.9,1.3h1.4c0.4,0,0.6,0.2,0.6,0.5v2.2 C301.2,196.7,301,197,300.6,197z"/>
      <path d="M312.3,184.2h-0.2c-1.4,0-2.6,0.4-3.7,1v11.2c0,0.3-0.3,0.6-0.6,0.6h-3.5c-0.3,0-0.6-0.3-0.6-0.6v-15.2 c0-0.3,0.3-0.6,0.6-0.6h3.4c0.3,0,0.6,0.3,0.6,0.6v0.6c1.1-0.9,2.5-1.4,3.9-1.4c0.3,0,0.6,0.3,0.6,0.6v2.7 C312.7,183.9,312.5,184.2,312.3,184.2z"/>
      <path d="M328.3,190.3h-9.1v0.1c0,1.6,0.7,3.1,2.9,3.1c1.8,0,4.3-0.1,5.5-0.3c0,0,0.1,0,0.1,0c0.3,0,0.5,0.1,0.5,0.5v2.2 c0,0.5-0.1,0.7-0.6,0.8c-1.8,0.5-3.4,0.7-5.9,0.7c-3.5,0-7.2-1.8-7.2-7.3v-2c0-4.6,2.7-7.5,7.2-7.5c4.7,0,7.1,3.2,7.1,7.5v1.7 C328.9,190,328.7,190.3,328.3,190.3z M324.4,187.3c0-2.1-1-3.2-2.6-3.2c-1.6,0-2.6,1.1-2.6,3.2v0.1h5.2V187.3z"/>
      <path d="M344,197h-3.2c-0.3,0-0.6-0.3-0.6-0.6V196c-1.1,0.8-2.3,1.3-4,1.3c-2.5,0-4.9-1.2-4.9-4.9v-0.3c0-3.3,2.1-4.8,7-4.8h1.5 v-1c0-1.6-0.8-2-2.1-2c-1.8,0-3.9,0.1-4.7,0.2h-0.1c-0.3,0-0.5-0.1-0.5-0.5v-2.3c0-0.3,0.2-0.5,0.5-0.6c1.1-0.3,3.1-0.6,4.9-0.6 c4.1,0,6.7,1.7,6.7,5.8v10.2C344.5,196.7,344.3,197,344,197z M340,190h-1.6c-2,0-2.5,0.7-2.5,2.1v0.3c0,1.2,0.6,1.4,1.8,1.4 c0.9,0,1.7-0.3,2.3-0.6V190z"/>
      <path d="M368.9,197h-3.5c-0.3,0-0.6-0.3-0.6-0.6v-9.7c0-1.8-0.4-2.4-1.7-2.4c-0.5,0-1.3,0.1-2.2,0.5c0.1,0.6,0.1,1.2,0.1,1.9v9.7 c0,0.3-0.3,0.6-0.6,0.6H357c-0.3,0-0.6-0.3-0.6-0.6v-9.7c0-1.8-0.3-2.4-1.7-2.4c-0.5,0-1.3,0.3-2.2,0.7v11.4 c0,0.3-0.3,0.6-0.6,0.6h-3.5c-0.3,0-0.6-0.3-0.6-0.6v-15.2c0-0.3,0.3-0.6,0.6-0.6h3.3c0.3,0,0.6,0.3,0.6,0.6v0.6 c1.2-0.8,2.6-1.4,4.2-1.4c1.5,0,2.6,0.4,3.4,1.4c1.7-0.9,2.8-1.4,4.7-1.4c3.8,0,4.9,2.5,4.9,6.3v9.7 C369.5,196.7,369.2,197,368.9,197z"/>
    </g>
    <g>
      <path d="M298.5,222.2c-0.6,0.2-2.3,0.5-4.3,0.5c-4.3,0-8.5-2.3-8.5-9.1V210c0-6.8,4.1-9.1,8.5-9.1c2,0,3.7,0.3,4.3,0.5 c0.4,0.1,0.6,0.2,0.6,0.6v2.8c0,0.3-0.2,0.6-0.5,0.6c0,0-0.1,0-0.1,0c-1.1-0.1-2.7-0.2-4.2-0.2c-2,0-3.5,1-3.5,4.8v3.6 c0,3.8,1.6,4.8,3.5,4.8c1.6,0,3.1-0.1,4.2-0.2c0,0,0.1,0,0.1,0c0.4,0,0.5,0.2,0.5,0.6v2.8C299.2,221.9,298.9,222.1,298.5,222.2z"/>
      <path d="M314.1,222.4h-3.2c-0.3,0-0.6-0.3-0.6-0.6v-0.5c-1.1,0.8-2.3,1.3-4,1.3c-2.5,0-4.9-1.2-4.9-4.9v-0.3c0-3.3,2.1-4.8,7-4.8 h1.5v-1c0-1.6-0.8-2-2.1-2c-1.8,0-3.9,0.1-4.7,0.2H303c-0.3,0-0.5-0.1-0.5-0.5V207c0-0.3,0.2-0.5,0.5-0.6c1.1-0.3,3.1-0.6,4.9-0.6 c4.1,0,6.7,1.7,6.7,5.8v10.2C314.7,222.1,314.4,222.4,314.1,222.4z M310.1,215.4h-1.6c-2,0-2.5,0.7-2.5,2.1v0.3 c0,1.2,0.6,1.4,1.8,1.4c0.9,0,1.7-0.3,2.3-0.6V215.4z"/>
      <path d="M326.6,209.6h-0.2c-1.4,0-2.6,0.4-3.7,1v11.2c0,0.3-0.3,0.6-0.6,0.6h-3.5c-0.3,0-0.6-0.3-0.6-0.6v-15.2 c0-0.3,0.3-0.6,0.6-0.6h3.4c0.3,0,0.6,0.3,0.6,0.6v0.6c1.1-0.9,2.5-1.4,3.9-1.4c0.3,0,0.6,0.3,0.6,0.6v2.7 C327.1,209.3,326.9,209.6,326.6,209.6z"/>
      <path d="M342.1,221.9c-1.6,0.4-3.9,0.7-6.1,0.7c-4.6,0-7.2-2.7-7.2-7.3v-2.2c0-4.5,2.3-7.3,7.2-7.3c0.6,0,1.5,0.1,2.3,0.2v-4.9 c0-0.3,0.3-0.6,0.6-0.6h3.5c0.3,0,0.6,0.3,0.6,0.6v20C343,221.5,342.9,221.7,342.1,221.9z M338.4,209.8c-0.7-0.1-1.7-0.1-2.3-0.1 c-2,0-2.5,1.5-2.5,3.5v2.2c0,2,0.5,3.5,2.5,3.5c0.9,0,1.8-0.1,2.3-0.2V209.8z"/>
      <path d="M358.5,222.4h-3.2c-0.3,0-0.6-0.3-0.6-0.6v-0.5c-1.1,0.8-2.3,1.3-4,1.3c-2.5,0-4.9-1.2-4.9-4.9v-0.3c0-3.3,2.1-4.8,7-4.8 h1.5v-1c0-1.6-0.8-2-2.1-2c-1.8,0-3.9,0.1-4.7,0.2h-0.1c-0.3,0-0.5-0.1-0.5-0.5V207c0-0.3,0.2-0.5,0.5-0.6 c1.1-0.3,3.1-0.6,4.9-0.6c4.1,0,6.7,1.7,6.7,5.8v10.2C359.1,222.1,358.8,222.4,358.5,222.4z M354.5,215.4h-1.6 c-2,0-2.5,0.7-2.5,2.1v0.3c0,1.2,0.6,1.4,1.8,1.4c0.9,0,1.7-0.3,2.3-0.6V215.4z"/>
      <path d="M376,222.4h-3.5c-0.3,0-0.6-0.3-0.6-0.6v-9.5c0-2-0.4-2.7-2.1-2.7c-0.8,0-1.7,0.4-2.7,0.9v11.3c0,0.3-0.3,0.6-0.6,0.6 h-3.5c-0.3,0-0.6-0.3-0.6-0.6v-15.2c0-0.3,0.3-0.6,0.6-0.6h3.2c0.3,0,0.6,0.3,0.6,0.6v0.7c1.6-1.1,2.8-1.5,4.7-1.5 c4.1,0,5.1,2.9,5.1,6.5v9.5C376.6,222.1,376.3,222.4,376,222.4z"/>
      <path d="M386.7,222.7c-4.6,0-7.2-2.9-7.2-7.4v-2c0-4.5,2.5-7.4,7.2-7.4s7.1,2.9,7.1,7.4v2C393.8,219.8,391.3,222.7,386.7,222.7z M389.2,213.2c0-2.3-0.9-3.5-2.5-3.5c-1.7,0-2.6,1.2-2.6,3.5v2c0,2.3,0.9,3.5,2.6,3.5c1.7,0,2.5-1.2,2.5-3.5V213.2z"/>
    </g>
  </g>
</svg>