<svg width="985" height="355" viewBox="0 0 985 355" fill="none" xmlns="http://www.w3.org/2000/svg">
<path d="M341.034 196.876C331.626 196.876 323.994 195.628 318.138 193.132C312.282 190.54 307.866 186.988 304.89 182.476C302.01 177.964 300.33 172.876 299.85 167.212H311.082C311.37 171.82 312.906 175.564 315.69 178.444C318.474 181.228 322.122 183.292 326.634 184.636C331.242 185.98 336.282 186.652 341.754 186.652C349.818 186.652 356.202 185.26 360.906 182.476C365.61 179.596 367.962 175.372 367.962 169.804C367.962 166.444 366.762 163.756 364.362 161.74C362.058 159.628 358.938 157.9 355.002 156.556C351.162 155.212 346.938 154.012 342.33 152.956C337.722 151.804 333.066 150.604 328.362 149.356C323.754 148.108 319.482 146.524 315.546 144.604C311.706 142.684 308.586 140.236 306.186 137.26C303.882 134.188 302.73 130.3 302.73 125.596C302.73 117.82 305.706 111.484 311.658 106.588C317.706 101.692 326.682 99.2441 338.586 99.2441C347.034 99.2441 353.994 100.54 359.466 103.132C364.938 105.628 369.018 108.94 371.706 113.068C374.49 117.196 376.026 121.66 376.314 126.46H365.226C364.65 121.66 362.25 117.628 358.026 114.364C353.802 111.004 347.322 109.324 338.586 109.324C333.21 109.324 328.842 109.852 325.482 110.908C322.122 111.964 319.53 113.356 317.706 115.084C315.978 116.716 314.778 118.444 314.106 120.268C313.53 122.092 313.242 123.82 313.242 125.452C313.242 128.62 314.394 131.212 316.698 133.228C319.098 135.148 322.218 136.78 326.058 138.124C329.994 139.372 334.314 140.524 339.018 141.58C343.722 142.636 348.378 143.836 352.986 145.18C357.69 146.428 361.962 148.06 365.802 150.076C369.738 151.996 372.858 154.492 375.162 157.564C377.562 160.636 378.762 164.572 378.762 169.372C378.762 178.204 375.402 185.02 368.682 189.82C361.962 194.524 352.746 196.876 341.034 196.876ZM393.196 195.724V123.724H403.996V134.956C406.588 131.5 409.756 128.572 413.5 126.172C417.244 123.772 422.044 122.572 427.9 122.572C432.892 122.572 437.548 123.772 441.868 126.172C446.284 128.476 449.836 131.98 452.524 136.684C455.308 141.292 456.7 147.004 456.7 153.82V195.724H445.9V154.108C445.9 147.58 444.028 142.348 440.284 138.412C436.54 134.38 431.692 132.364 425.74 132.364C421.708 132.364 418.06 133.276 414.796 135.1C411.532 136.924 408.892 139.516 406.876 142.876C404.956 146.14 403.996 149.932 403.996 154.252V195.724H393.196ZM505.142 196.876C498.134 196.876 491.99 195.244 486.71 191.98C481.526 188.62 477.494 184.108 474.614 178.444C471.734 172.78 470.294 166.54 470.294 159.724C470.294 152.812 471.734 146.572 474.614 141.004C477.494 135.34 481.526 130.876 486.71 127.612C491.99 124.252 498.134 122.572 505.142 122.572C511.094 122.572 516.182 123.724 520.406 126.028C524.726 128.332 528.23 131.452 530.918 135.388V123.724H541.718V195.724H530.918V184.204C528.23 188.044 524.726 191.116 520.406 193.42C516.182 195.724 511.094 196.876 505.142 196.876ZM506.582 187.084C511.958 187.084 516.47 185.836 520.118 183.34C523.862 180.844 526.694 177.532 528.614 173.404C530.534 169.18 531.494 164.62 531.494 159.724C531.494 154.732 530.534 150.172 528.614 146.044C526.694 141.916 523.862 138.604 520.118 136.108C516.47 133.612 511.958 132.364 506.582 132.364C501.302 132.364 496.742 133.612 492.902 136.108C489.062 138.604 486.134 141.916 484.118 146.044C482.102 150.172 481.094 154.732 481.094 159.724C481.094 164.62 482.102 169.18 484.118 173.404C486.134 177.532 489.062 180.844 492.902 183.34C496.742 185.836 501.302 187.084 506.582 187.084ZM560.399 224.236V123.724H571.199V135.244C573.887 131.308 577.343 128.236 581.567 126.028C585.887 123.724 591.023 122.572 596.975 122.572C603.983 122.572 610.079 124.252 615.263 127.612C620.543 130.876 624.623 135.34 627.503 141.004C630.383 146.572 631.823 152.812 631.823 159.724C631.823 166.54 630.383 172.78 627.503 178.444C624.623 184.108 620.543 188.62 615.263 191.98C610.079 195.244 603.983 196.876 596.975 196.876C591.023 196.876 585.887 195.724 581.567 193.42C577.343 191.02 573.887 187.9 571.199 184.06V224.236H560.399ZM595.535 187.084C600.911 187.084 605.471 185.836 609.215 183.34C613.055 180.844 615.983 177.532 617.999 173.404C620.015 169.18 621.023 164.62 621.023 159.724C621.023 154.732 620.015 150.172 617.999 146.044C615.983 141.916 613.055 138.604 609.215 136.108C605.471 133.612 600.911 132.364 595.535 132.364C590.255 132.364 585.743 133.612 581.999 136.108C578.255 138.604 575.423 141.916 573.503 146.044C571.583 150.172 570.623 154.732 570.623 159.724C570.623 164.62 571.583 169.18 573.503 173.404C575.423 177.532 578.255 180.844 581.999 183.34C585.743 185.836 590.255 187.084 595.535 187.084ZM682.616 196.876C676.664 196.876 671.528 195.724 667.208 193.42C662.984 191.116 659.528 188.044 656.84 184.204V195.724H646.04V94.9241H656.84V135.388C659.528 131.452 662.984 128.332 667.208 126.028C671.528 123.724 676.664 122.572 682.616 122.572C689.624 122.572 695.72 124.252 700.904 127.612C706.184 130.876 710.264 135.34 713.144 141.004C716.024 146.572 717.464 152.812 717.464 159.724C717.464 166.54 716.024 172.78 713.144 178.444C710.264 184.108 706.184 188.62 700.904 191.98C695.72 195.244 689.624 196.876 682.616 196.876ZM681.176 187.084C686.552 187.084 691.112 185.836 694.856 183.34C698.696 180.844 701.624 177.532 703.64 173.404C705.656 169.18 706.664 164.62 706.664 159.724C706.664 154.732 705.656 150.172 703.64 146.044C701.624 141.916 698.696 138.604 694.856 136.108C691.112 133.612 686.552 132.364 681.176 132.364C675.896 132.364 671.384 133.612 667.64 136.108C663.896 138.604 661.064 141.916 659.144 146.044C657.224 150.172 656.264 154.732 656.264 159.724C656.264 164.62 657.224 169.18 659.144 173.404C661.064 177.532 663.896 180.844 667.64 183.34C671.384 185.836 675.896 187.084 681.176 187.084ZM731.68 195.724V123.724H742.48V141.436C742.864 140.188 743.584 138.556 744.64 136.54C745.792 134.428 747.424 132.316 749.536 130.204C751.648 128.092 754.288 126.316 757.456 124.876C760.72 123.34 764.56 122.572 768.976 122.572H769.696V133.372H768.4C763.024 133.372 758.368 134.86 754.432 137.836C750.592 140.716 747.616 144.508 745.504 149.212C743.488 153.82 742.48 158.764 742.48 164.044V195.724H731.68ZM780.889 111.628V97.5161H792.553V111.628H780.889ZM781.321 195.724V123.724H792.121V195.724H781.321ZM810.852 195.724V94.9241H821.652V195.724H810.852ZM840.383 195.724V94.9241H851.183V195.724H840.383ZM869.483 111.628V97.5161H881.147V111.628H869.483ZM869.915 195.724V123.724H880.715V195.724H869.915ZM929.83 196.876C922.822 196.876 916.678 195.244 911.398 191.98C906.214 188.62 902.182 184.108 899.302 178.444C896.422 172.78 894.982 166.54 894.982 159.724C894.982 152.812 896.422 146.572 899.302 141.004C902.182 135.34 906.214 130.876 911.398 127.612C916.678 124.252 922.822 122.572 929.83 122.572C935.782 122.572 940.87 123.724 945.094 126.028C949.414 128.332 952.918 131.452 955.606 135.388V123.724H966.406V195.724H955.606V184.204C952.918 188.044 949.414 191.116 945.094 193.42C940.87 195.724 935.782 196.876 929.83 196.876ZM931.27 187.084C936.646 187.084 941.158 185.836 944.806 183.34C948.55 180.844 951.382 177.532 953.302 173.404C955.222 169.18 956.182 164.62 956.182 159.724C956.182 154.732 955.222 150.172 953.302 146.044C951.382 141.916 948.55 138.604 944.806 136.108C941.158 133.612 936.646 132.364 931.27 132.364C925.99 132.364 921.43 133.612 917.59 136.108C913.75 138.604 910.822 141.916 908.806 146.044C906.79 150.172 905.782 154.732 905.782 159.724C905.782 164.62 906.79 169.18 908.806 173.404C910.822 177.532 913.75 180.844 917.59 183.34C921.43 185.836 925.99 187.084 931.27 187.084Z" fill="url(#paint0_linear)"/>
<path d="M103.716 222.281C100.644 217.953 89.1923 219.095 84.4606 219.654C69.2605 221.436 43.2901 229.175 27.6438 233.231L6.81041 238.292C4.85402 238.521 1.13513 238.714 0.827752 235.949C0.399161 232.186 11.782 226.638 14.7385 224.975C26.8649 218.164 53.2925 208.494 61.0445 198.274C49.7315 192.604 49.307 193.79 37.4488 191.831C35.2199 191.46 31.1027 190.916 31.1369 187.811C31.1736 184.482 36.9563 182.316 39.4418 181.178L65.1368 169.105L130.503 136.989C145.116 130.666 163.355 125.551 178.654 131.612C186.368 134.662 191.843 142.146 195.318 149.437C197.366 153.713 198.497 156.879 199.366 161.587C205.205 193.322 169.298 214.055 146.419 227.418L131.163 235.993L107.358 249.015C101.491 252.176 99.0561 254.913 93.2755 250.685C97.1286 244.977 108.335 228.798 103.716 222.281ZM19.5615 229.896L19.0882 228.409L18.5875 229.407L19.5615 229.896ZM37.756 225.233C51.4607 221.401 80.0887 213.785 93.5013 213.79C110.376 213.798 113.549 224.46 106.63 238.658L104.126 243.645C111.457 241.844 125.712 233.417 132.843 229.342C150.598 219.189 178.214 203.92 189.677 186.696C200.029 171.15 193.189 143.571 176.271 136.36C164.544 131.369 149.641 135.499 138.084 139.549C121.286 145.437 94.8337 159.603 78.1536 168.149L42.5661 186.495L56.5098 190.301C66.9472 193.658 68.0613 200.525 59.1719 207.326C48.5193 215.477 28.0515 222.02 20.0622 228.898C25.9914 228.991 32.0139 226.833 37.756 225.233ZM142.992 195.371C118.75 182.221 129.562 144.523 156.434 144.294C161.317 144.261 166.088 145.933 170.288 148.28C187.375 157.85 187.204 182.269 171.762 193.935C165.135 198.95 157.785 199.891 149.81 198.796C147.031 197.65 145.563 197.1 142.992 195.371ZM165.491 104.604C174.718 83.1344 196.771 95.373 208.663 105.843C226.68 121.7 242.555 150.595 245.408 174.722C247.102 189.012 245.016 213.357 225.011 211.764C213.807 210.857 205.555 203.315 197.196 196.718C202.293 188.287 204.83 185.59 206.201 175.012C208.447 157.78 198.847 134.873 183.722 126.376C177.882 123.093 169.392 122.488 162.763 121.968C162.58 115.894 163.048 110.296 165.491 104.604Z" fill="url(#paint1_linear)"/>
<defs>
<linearGradient id="paint0_linear" x1="639.742" y1="77.7241" x2="639.742" y2="236.724" gradientUnits="userSpaceOnUse">
<stop offset="0.145833" stop-color="#FC65F9"/>
<stop offset="0.927083" stop-color="#405DE6"/>
</linearGradient>
<linearGradient id="paint1_linear" x1="245.059" y1="359.886" x2="540.945" y2="-229.182" gradientUnits="userSpaceOnUse">
<stop stop-color="#FC65F9"/>
<stop offset="0.416667" stop-color="#405DE6"/>
</linearGradient>
</defs>
</svg>
