<?xml version="1.0" standalone="no"?>
<!DOCTYPE svg PUBLIC "-//W3C//DTD SVG 20010904//EN"
 "http://www.w3.org/TR/2001/REC-SVG-20010904/DTD/svg10.dtd">
<svg version="1.0" xmlns="http://www.w3.org/2000/svg"
 width="308.000000pt" height="308.000000pt" viewBox="0 0 308.000000 308.000000"
 preserveAspectRatio="xMidYMid meet">
<metadata>
Created by potrace 1.14, written by Peter Selinger 2001-2017
</metadata>
<g transform="translate(0.000000,308.000000) scale(0.100000,-0.100000)"
fill="#000000" stroke="none">
<path d="M1427 3004 c-148 -26 -291 -105 -396 -220 -88 -96 -165 -264 -177
-384 -1 -14 -2 -228 -3 -476 l-1 -451 -24 -11 c-43 -19 -94 -71 -116 -120 -77
-164 48 -357 231 -354 259 4 339 355 108 472 l-39 21 0 442 c1 485 4 518 60
633 76 155 280 294 431 294 l40 0 -3 82 c-3 94 2 91 -111 72z"/>
<path d="M1645 3007 c-5 -17 -1 -144 5 -150 3 -3 39 -7 80 -10 254 -17 513
-133 718 -321 40 -37 145 -165 178 -217 66 -105 130 -258 154 -369 12 -55 12
-56 -19 -89 -17 -18 -36 -51 -42 -74 -48 -180 177 -305 304 -170 79 84 58 220
-44 280 -20 12 -28 29 -38 77 -7 33 -24 95 -38 136 -24 74 -117 272 -137 294
-6 6 -28 36 -49 66 -44 66 -161 190 -237 253 -187 154 -453 268 -685 292 -128
13 -146 13 -150 2z"/>
<path d="M585 2809 c-45 -21 -94 -88 -96 -129 -1 -14 -2 -34 -3 -45 -1 -11
-44 -63 -96 -115 -188 -189 -300 -398 -362 -674 -44 -197 -28 -485 38 -684 30
-89 87 -216 101 -225 5 -3 39 12 76 34 l66 39 -24 48 c-35 70 -51 109 -74 187
-22 72 -25 82 -40 195 -11 81 -6 267 9 340 6 30 13 64 16 76 10 54 57 181 90
246 56 111 116 197 202 289 l79 83 80 1 c69 0 85 3 120 27 64 42 90 112 72
190 -26 112 -149 169 -254 117z"/>
<path d="M1470 2455 c-167 -52 -225 -267 -108 -400 78 -88 196 -112 298 -61
29 14 55 26 60 26 9 0 648 -375 727 -426 208 -136 292 -413 197 -648 -13 -33
-23 -60 -21 -61 1 -1 31 -18 67 -39 74 -43 74 -43 111 53 33 87 46 168 44 266
-4 184 -71 341 -200 470 -75 75 -105 96 -461 305 l-382 224 -4 67 c-8 112 -72
194 -176 225 -56 17 -94 17 -152 -1z"/>
<path d="M1483 1848 c-4 -7 -24 -53 -43 -103 -35 -89 -36 -90 -73 -93 -60 -5
-75 -63 -20 -77 34 -8 22 -18 -23 -19 -43 -1 -65 -26 -48 -53 6 -10 21 -19 33
-21 26 -4 26 -5 -4 -82 -24 -60 -25 -98 -4 -101 41 -6 45 -3 79 83 19 48 38
90 43 94 8 8 164 7 177 -1 4 -2 22 -43 40 -89 35 -91 58 -112 89 -82 15 15 14
21 -8 79 -37 99 -37 97 -7 97 19 0 27 6 32 25 9 35 -11 55 -52 53 -43 -2 -55
9 -21 18 30 7 44 38 27 59 -6 8 -27 15 -47 17 -34 3 -36 5 -72 93 -20 50 -40
96 -44 103 -11 16 -43 16 -54 0z m41 -164 c10 -26 7 -34 -15 -34 -15 0 -19 4
-15 16 3 9 6 20 6 25 0 15 17 10 24 -7z m43 -119 c2 -6 -18 -9 -44 -8 -77 3
-80 3 -61 11 26 10 101 8 105 -3z"/>
<path d="M1980 1400 c-102 -28 -176 -119 -185 -228 -2 -21 -4 -40 -4 -44 -1
-5 -223 -135 -481 -280 -25 -14 -89 -51 -143 -81 -170 -98 -229 -116 -359
-112 -177 6 -326 89 -438 244 -15 20 -15 20 -83 -20 l-67 -40 17 -32 c30 -53
165 -180 233 -220 201 -116 448 -126 655 -27 44 21 229 124 410 228 278 160
332 188 345 177 33 -28 102 -55 150 -58 57 -4 146 27 187 65 65 60 94 179 66
264 -40 118 -185 197 -303 164z"/>
<path d="M2513 722 c-179 -261 -465 -438 -787 -486 -160 -25 -371 -8 -518 40
-39 13 -49 21 -58 49 -25 76 -117 128 -199 113 -115 -20 -176 -135 -132 -251
33 -86 145 -128 234 -89 24 11 48 25 51 31 5 7 13 8 24 2 25 -13 185 -52 245
-59 69 -9 288 -9 358 0 306 39 618 206 823 439 66 75 146 187 146 203 0 6 -30
27 -68 48 l-67 36 -52 -76z"/>
</g>
</svg>
